<svg width="113" height="56" viewBox="0 0 113 56" fill="none" xmlns="http://www.w3.org/2000/svg">
<path d="M58.4543 10.9475V18.5778H61.447V19.7424H57V10.9475H58.4543Z" fill="white"/>
<path d="M65.066 19.8551C63.0652 19.8551 61.5479 18.4359 61.5479 16.2487C61.5479 14.0573 63.1283 12.6548 65.129 12.6548C67.1298 12.6548 68.7102 14.0615 68.7102 16.2487C68.7102 18.4401 67.0793 19.8551 65.066 19.8551ZM65.066 18.6029C66.1504 18.6029 67.218 17.8307 67.218 16.2487C67.218 14.6667 66.184 13.907 65.1038 13.907C64.0068 13.907 63.0274 14.6667 63.0274 16.2487C63.0274 17.8307 63.9689 18.6029 65.066 18.6029Z" fill="white"/>
<path d="M70.2403 12.7673L72.2284 18.4483L74.2165 12.7673H75.7591L73.0817 19.7423H71.3499L68.6851 12.7673H70.2403Z" fill="white"/>
<path d="M79.2353 19.8551C77.2219 19.8551 75.7297 18.4359 75.7297 16.2487C75.7297 14.0573 77.1588 12.6548 79.2353 12.6548C81.236 12.6548 82.6525 14.0364 82.6525 16.0859C82.6525 16.328 82.6399 16.5534 82.6021 16.7955H77.2345C77.3354 17.9476 78.1634 18.6447 79.2353 18.6447C80.1263 18.6447 80.6223 18.2147 80.8913 17.6721H82.4592C82.064 18.8826 80.9544 19.8551 79.2353 19.8551ZM77.2471 15.6309H81.1351C81.1099 14.554 80.2566 13.8736 79.1722 13.8736C78.1886 13.8695 77.3984 14.529 77.2471 15.6309Z" fill="white"/>
<path d="M86.3975 12.6548C88.1167 12.6548 89.2389 13.5021 89.6341 14.9714H88.0662C87.8225 14.2994 87.2634 13.8695 86.3975 13.8695C85.2248 13.8695 84.4472 14.7293 84.4472 16.2487C84.4472 17.7806 85.2248 18.6405 86.3975 18.6405C87.2634 18.6405 87.8014 18.2606 88.0662 17.5385H89.6341C89.2389 18.9034 88.1167 19.8551 86.3975 19.8551C84.3842 19.8551 82.9551 18.4359 82.9551 16.2487C82.9551 14.074 84.3842 12.6548 86.3975 12.6548Z" fill="white"/>
<path d="M90.2561 10.9225C90.2561 10.4049 90.6638 10 91.185 10C91.6936 10 92.1013 10.4049 92.1013 10.9225C92.1013 11.4401 91.6936 11.845 91.185 11.845C90.6638 11.845 90.2561 11.4401 90.2561 10.9225ZM90.4452 12.7674H91.8996V19.7424H90.4452V12.7674Z" fill="white"/>
<path d="M94.6277 19.7424H93.1733V12.7675H94.6277V13.7818C95.0354 13.0847 95.7373 12.6548 96.7293 12.6548V14.1491H96.3594C95.2876 14.1491 94.6277 14.5916 94.6277 16.0734V19.7424Z" fill="white"/>
<path d="M100.386 12.6548C102.105 12.6548 103.227 13.5021 103.623 14.9714H102.055C101.811 14.2994 101.252 13.8695 100.386 13.8695C99.2134 13.8695 98.4358 14.7293 98.4358 16.2487C98.4358 17.7806 99.2134 18.6405 100.386 18.6405C101.252 18.6405 101.79 18.2606 102.055 17.5385H103.623C103.227 18.9034 102.105 19.8551 100.386 19.8551C98.3727 19.8551 96.9436 18.4359 96.9436 16.2487C96.9436 14.074 98.3727 12.6548 100.386 12.6548Z" fill="white"/>
<path d="M108.477 19.8299C105.981 19.8299 103.955 17.9683 103.955 15.3261C103.955 12.6922 105.981 10.8347 108.477 10.8347C110.999 10.8347 113 12.6964 113 15.3261C113 17.9683 110.999 19.8299 108.477 19.8299ZM108.477 18.5777C110.234 18.5777 111.512 17.3129 111.512 15.3261C111.512 13.3392 110.238 12.0995 108.477 12.0995C106.72 12.0995 105.443 13.3392 105.443 15.3261C105.443 17.3129 106.72 18.5777 108.477 18.5777Z" fill="white"/>
<path d="M57.3237 21.8335H57.6978L58.673 23.9999L59.6481 21.8335H60.018V24.4548H59.6734V22.5014L58.7949 24.4548H58.5511L57.6684 22.4972V24.4548H57.3237V21.8335Z" fill="white"/>
<path d="M61.5101 24.4883C60.9132 24.4883 60.4761 24.0709 60.4761 23.4113C60.4761 22.756 60.9006 22.3428 61.5101 22.3428C62.1153 22.3428 62.5147 22.7685 62.5147 23.3362C62.5147 23.4113 62.5105 23.474 62.502 23.5449H60.8334C60.8586 23.9665 61.157 24.1961 61.5143 24.1961C61.8253 24.1961 62.0271 24.0375 62.1027 23.8121H62.4768C62.3633 24.1919 62.0313 24.4883 61.5101 24.4883ZM60.8334 23.2653H62.1532C62.1574 22.8604 61.8505 22.635 61.4933 22.635C61.157 22.635 60.8754 22.8604 60.8334 23.2653Z" fill="white"/>
<path d="M63.8765 24.4883C63.2797 24.4883 62.8425 24.0709 62.8425 23.4113C62.8425 22.756 63.2671 22.3428 63.8765 22.3428C64.4818 22.3428 64.8811 22.7685 64.8811 23.3362C64.8811 23.4113 64.8769 23.474 64.8685 23.5449H63.1998C63.225 23.9665 63.5235 24.1961 63.8807 24.1961C64.1918 24.1961 64.3935 24.0375 64.4692 23.8121H64.8433C64.7298 24.1919 64.3935 24.4883 63.8765 24.4883ZM63.1998 23.2653H64.5196C64.5238 22.8604 64.217 22.635 63.8597 22.635C63.5193 22.635 63.2376 22.8604 63.1998 23.2653Z" fill="white"/>
<path d="M65.4109 22.6643H65.1418V22.3804H65.4109V21.8586H65.7597V22.3804H66.3061V22.6643H65.7597V23.8873C65.7597 24.0918 65.8354 24.1628 66.0497 24.1628H66.3061V24.4549H65.9951C65.6252 24.4549 65.4151 24.3047 65.4151 23.8873V22.6643H65.4109Z" fill="white"/>
<path d="M68.6053 22.3469C68.9962 22.3469 69.261 22.5431 69.3829 22.7602V22.3803H69.7317V24.4549H69.3829V24.0667C69.2568 24.2921 68.9877 24.4882 68.601 24.4882C68.0462 24.4882 67.6133 24.0541 67.6133 23.4072C67.6133 22.7602 68.0462 22.3469 68.6053 22.3469ZM68.6725 22.6433C68.29 22.6433 67.9664 22.9188 67.9664 23.4072C67.9664 23.8955 68.29 24.1835 68.6725 24.1835C69.055 24.1835 69.3829 23.8997 69.3829 23.4113C69.3829 22.9313 69.055 22.6433 68.6725 22.6433Z" fill="white"/>
<path d="M71.3417 21.8335H71.7157L72.6909 23.9999L73.6661 21.8335H74.0359V24.4548H73.6871V22.5014L72.8086 24.4548H72.5648L71.6821 22.4972V24.4548H71.3333V21.8335H71.3417Z" fill="white"/>
<path d="M75.4861 22.3469C75.877 22.3469 76.1418 22.5431 76.2637 22.7602V22.3803H76.6126V24.4549H76.2637V24.0667C76.1376 24.2921 75.8686 24.4882 75.4819 24.4882C74.9271 24.4882 74.4941 24.0541 74.4941 23.4072C74.4941 22.7602 74.9271 22.3469 75.4861 22.3469ZM75.5534 22.6433C75.1709 22.6433 74.8472 22.9188 74.8472 23.4072C74.8472 23.8955 75.1709 24.1835 75.5534 24.1835C75.9359 24.1835 76.2637 23.8997 76.2637 23.4113C76.2637 22.9313 75.9359 22.6433 75.5534 22.6433Z" fill="white"/>
<path d="M77.2808 22.6643H77.0076V22.3804H77.2766V21.8586H77.6254V22.3804H78.1719V22.6643H77.6254V23.8873C77.6254 24.0918 77.7011 24.1628 77.9155 24.1628H78.1719V24.4549H77.8608C77.4909 24.4549 77.2808 24.3047 77.2808 23.8873V22.6643Z" fill="white"/>
<path d="M79.4791 22.3469C79.9961 22.3469 80.3366 22.6141 80.4459 23.0482H80.0718C80.0003 22.7977 79.7901 22.6391 79.4791 22.6391C79.0966 22.6391 78.815 22.9063 78.815 23.4155C78.815 23.9289 79.0966 24.2002 79.4791 24.2002C79.7901 24.2002 79.9961 24.0541 80.0718 23.7912H80.4459C80.3408 24.2044 80.0003 24.4924 79.4791 24.4924C78.8822 24.4924 78.4619 24.075 78.4619 23.4155C78.4619 22.7602 78.8864 22.3469 79.4791 22.3469Z" fill="white"/>
<path d="M80.9082 21.6499H81.2571V22.6767C81.3958 22.4555 81.6522 22.3386 81.9464 22.3386C82.413 22.3386 82.7829 22.635 82.7829 23.2277V24.4507H82.4382V23.2778C82.4382 22.852 82.207 22.6392 81.8539 22.6392C81.5009 22.6392 81.2571 22.8604 81.2571 23.307V24.4549H80.9082V21.6499Z" fill="white"/>
<path d="M83.325 23.979H83.7075L83.2788 24.9975H83.0476L83.325 23.979Z" fill="white"/>
<path d="M86.3177 21.7793C86.8936 21.7793 87.3517 22.0673 87.5493 22.5766H87.1332C86.9903 22.2593 86.7044 22.0798 86.3177 22.0798C85.7629 22.0798 85.3468 22.4805 85.3468 23.1275C85.3468 23.7704 85.7629 24.1711 86.3177 24.1711C86.7086 24.1711 86.9903 23.9916 87.1332 23.6785H87.5493C87.3517 24.1878 86.8936 24.4716 86.3177 24.4716C85.5738 24.4716 84.9895 23.9206 84.9895 23.1275C84.9895 22.3428 85.5738 21.7793 86.3177 21.7793Z" fill="white"/>
<path d="M88.0664 21.6499H88.4153V22.6767C88.554 22.4555 88.8104 22.3386 89.1046 22.3386C89.5712 22.3386 89.9411 22.635 89.9411 23.2277V24.4507H89.5964V23.2778C89.5964 22.852 89.3652 22.6392 89.0121 22.6392C88.6591 22.6392 88.4153 22.8604 88.4153 23.307V24.4549H88.0664V21.6499Z" fill="white"/>
<path d="M91.3701 22.3469C91.761 22.3469 92.0259 22.5431 92.1477 22.7602V22.3803H92.4966V24.4549H92.1477V24.0667C92.0216 24.2921 91.7526 24.4882 91.3659 24.4882C90.8111 24.4882 90.3782 24.0541 90.3782 23.4072C90.3782 22.7602 90.8069 22.3469 91.3701 22.3469ZM91.4374 22.6433C91.0549 22.6433 90.7312 22.9188 90.7312 23.4072C90.7312 23.8955 91.0549 24.1835 91.4374 24.1835C91.8199 24.1835 92.1477 23.8997 92.1477 23.4113C92.1477 22.9313 91.8199 22.6433 91.4374 22.6433Z" fill="white"/>
<path d="M93.1606 22.6643H92.8916V22.3804H93.1606V21.8586H93.5095V22.3804H94.0559V22.6643H93.5095V23.8873C93.5095 24.0918 93.5851 24.1628 93.7995 24.1628H94.0559V24.4549H93.7449C93.375 24.4549 93.1648 24.3047 93.1648 23.8873V22.6643H93.1606Z" fill="white"/>
<path d="M96.3553 22.3469C96.7462 22.3469 97.011 22.5431 97.1329 22.7602V22.3803H97.4817V24.4549H97.1329V24.0667C97.0068 24.2921 96.7377 24.4882 96.351 24.4882C95.7962 24.4882 95.3633 24.0541 95.3633 23.4072C95.3633 22.7602 95.792 22.3469 96.3553 22.3469ZM96.4225 22.6433C96.04 22.6433 95.7164 22.9188 95.7164 23.4072C95.7164 23.8955 96.04 24.1835 96.4225 24.1835C96.805 24.1835 97.1329 23.8997 97.1329 23.4113C97.1329 22.9313 96.805 22.6433 96.4225 22.6433Z" fill="white"/>
<path d="M99.6001 23.2819C99.6001 22.8562 99.3689 22.6433 99.0158 22.6433C98.6627 22.6433 98.4189 22.8645 98.4189 23.3111V24.459H98.0701V22.3845H98.4189V22.6809C98.5576 22.4638 98.8098 22.3469 99.0915 22.3469C99.5748 22.3469 99.9447 22.6433 99.9447 23.236V24.459H99.6001V23.2819Z" fill="white"/>
<path d="M101.378 22.347C101.706 22.347 102.008 22.5139 102.151 22.7518V21.6541H102.5V24.4591H102.151V24.0709C102.025 24.3004 101.756 24.4966 101.374 24.4966C100.815 24.4966 100.382 24.0625 100.382 23.4155C100.382 22.7602 100.815 22.347 101.378 22.347ZM101.441 22.6433C101.059 22.6433 100.735 22.9188 100.735 23.4072C100.735 23.8956 101.059 24.1836 101.441 24.1836C101.824 24.1836 102.151 23.8997 102.151 23.4114C102.151 22.9313 101.824 22.6433 101.441 22.6433Z" fill="white"/>
<path d="M106.346 23.1401C106.346 23.9582 105.808 24.455 104.934 24.455H104.106V21.8127H104.934C105.808 21.8127 106.346 22.322 106.346 23.1401ZM104.938 24.1711C105.632 24.1711 105.993 23.7829 105.993 23.1401C105.993 22.4973 105.632 22.0966 104.938 22.0966H104.459V24.1711H104.938Z" fill="white"/>
<path d="M107.666 22.3469C108.057 22.3469 108.322 22.5431 108.444 22.7602V22.3803H108.793V24.4549H108.444V24.0667C108.318 24.2921 108.049 24.4882 107.662 24.4882C107.107 24.4882 106.674 24.0541 106.674 23.4072C106.674 22.7602 107.107 22.3469 107.666 22.3469ZM107.737 22.6433C107.355 22.6433 107.031 22.9188 107.031 23.4072C107.031 23.8955 107.355 24.1835 107.737 24.1835C108.12 24.1835 108.448 23.8997 108.448 23.4113C108.444 22.9313 108.116 22.6433 107.737 22.6433Z" fill="white"/>
<path d="M109.461 22.6643H109.192V22.3804H109.461V21.8586H109.81V22.3804H110.356V22.6643H109.81V23.8873C109.81 24.0918 109.885 24.1628 110.1 24.1628H110.356V24.4549H110.045C109.675 24.4549 109.465 24.3047 109.465 23.8873V22.6643H109.461Z" fill="white"/>
<path d="M111.676 24.4883C111.079 24.4883 110.642 24.0709 110.642 23.4113C110.642 22.756 111.067 22.3428 111.676 22.3428C112.281 22.3428 112.681 22.7685 112.681 23.3362C112.681 23.4113 112.676 23.474 112.668 23.5449H110.999C111.025 23.9665 111.323 24.1961 111.68 24.1961C111.991 24.1961 112.193 24.0375 112.269 23.8121H112.643C112.529 24.1919 112.193 24.4883 111.676 24.4883ZM110.999 23.2653H112.319C112.323 22.8604 112.017 22.635 111.659 22.635C111.323 22.635 111.037 22.8604 110.999 23.2653Z" fill="white"/>
<path d="M28.0023 31.2515C27.7879 31.2515 27.5988 31.0971 27.5609 30.8842C27.46 30.3374 27.2415 29.8031 26.8842 29.2479C26.0057 27.8788 24.5262 26.7393 23.2148 25.7333L22.8449 25.4495C22.6473 25.2992 22.4498 25.1448 22.2522 24.9945C19.4444 22.8365 16.2668 20.3905 15.3042 16.6463C14.6485 14.1042 15.2664 11.4161 16.9099 9.63376C18.3558 8.06846 20.3818 7.40478 22.6221 7.76793C24.6985 8.10603 26.6278 9.38331 27.9981 11.3159C29.3725 9.38748 31.2976 8.10603 33.374 7.76793C35.6144 7.40478 37.6403 8.06846 39.0863 9.63376C40.7297 11.4161 41.3434 14.1042 40.6919 16.6463C39.7294 20.3905 36.5475 22.8365 33.7439 24.9945C33.5464 25.149 33.3488 25.2992 33.1513 25.4495L32.7814 25.7333C31.4742 26.7393 29.9904 27.8788 29.1161 29.2479C28.7631 29.8031 28.5403 30.3374 28.4394 30.8842C28.4016 31.0971 28.2166 31.2515 28.0023 31.2515ZM21.4536 8.56101C19.9362 8.56101 18.5828 9.13704 17.5698 10.2348C16.1281 11.8001 15.5942 14.171 16.1743 16.4292C17.0612 19.877 19.9824 22.1227 22.8028 24.2933C23.0004 24.4477 23.2021 24.598 23.3955 24.7524L23.7654 25.0363C25.0642 26.0339 26.6782 27.2778 27.6408 28.7763C27.7753 28.9892 27.8972 29.202 28.0023 29.4149C28.1073 29.202 28.225 28.9892 28.3637 28.7763C29.3263 27.2778 30.9403 26.0339 32.2391 25.0363L32.609 24.7524C32.8066 24.6022 33.0041 24.4477 33.2017 24.2933C36.0263 22.1227 38.9475 19.8729 39.8302 16.4292C40.4103 14.171 39.8765 11.8001 38.4347 10.2348C37.199 8.89494 35.4588 8.33143 33.5253 8.64449C32.4703 8.81563 31.4531 9.26643 30.5452 9.95099C32.4661 9.00346 34.6896 8.76971 36.6862 9.94682C37.7748 10.5896 38.5146 11.5998 38.8299 12.8729C39.267 14.6594 38.8257 16.9719 37.6992 18.7667C37.0351 19.827 35.5429 21.05 33.8196 22.4692C31.8356 24.0971 29.5869 25.9462 28.3806 27.7828C28.2965 27.9081 28.1578 27.9832 28.0065 27.9832C27.8551 27.9832 27.7122 27.9081 27.6324 27.7828C26.426 25.9462 24.1773 24.1013 22.1934 22.4692C20.4658 21.05 18.9779 19.827 18.3138 18.7667C17.1873 16.9719 16.7459 14.6594 17.1831 12.8729C17.4941 11.5998 18.2339 10.5896 19.3267 9.94682C21.3233 8.76971 23.5468 9.00764 25.4677 9.95099C24.5598 9.27061 23.5426 8.81563 22.4876 8.64449C22.1303 8.58605 21.7856 8.56101 21.4536 8.56101ZM22.248 10.0386C21.4074 10.0386 20.5709 10.2432 19.7765 10.7065C18.8854 11.2324 18.3053 12.0297 18.0489 13.0774C17.6665 14.6427 18.0658 16.6922 19.0703 18.2909C19.6588 19.2301 21.1678 20.4656 22.7608 21.7763C24.6102 23.2957 26.6824 24.9945 28.0023 26.756C29.3263 24.9945 31.3985 23.2957 33.2437 21.7763C34.841 20.4656 36.3457 19.2259 36.9342 18.2909C37.9388 16.688 38.3381 14.6427 37.9556 13.0774C37.6992 12.0297 37.1149 11.2283 36.228 10.7065C33.5842 9.14538 30.4065 10.5312 28.431 12.5974C28.3974 12.6349 28.3637 12.6683 28.3301 12.7059C28.2461 12.7977 28.1242 12.8478 28.0023 12.8478C27.8762 12.8478 27.7585 12.7977 27.6744 12.7059C27.6408 12.6683 27.6072 12.6349 27.5735 12.5974C26.1865 11.1531 24.2151 10.0386 22.248 10.0386Z" fill="white"/>
<path d="M28.0022 35.4592C18.1581 35.4592 10.1467 27.5075 10.1467 17.7275C10.1467 7.9517 18.1581 0 28.0022 0C37.8462 0 45.8576 7.9517 45.8576 17.7317C45.8534 27.5075 37.8462 35.4592 28.0022 35.4592ZM28.0022 0.642815C18.5154 0.642815 10.794 8.31067 10.794 17.7317C10.794 27.1527 18.5154 34.8205 28.0022 34.8205C37.4889 34.8205 45.2103 27.1527 45.2103 17.7317C45.2103 8.3065 37.4889 0.642815 28.0022 0.642815Z" fill="white"/>
</svg>
