<svg width="20" height="25" viewBox="0 0 20 25" fill="none" xmlns="http://www.w3.org/2000/svg">
<path d="M1.97222 4.04194L2.15105 3.98883C2.67716 3.83259 3.42772 3.65154 4.2377 3.58249L4.23771 3.58249C5.81434 3.44813 7.33264 3.7491 8.17387 5.03947L8.17388 5.03948C9.24752 6.68656 11.1836 6.84761 12.8304 6.61291C14.5278 6.37102 16.299 5.66548 17.5336 5.09287C17.5336 5.09285 17.5337 5.09284 17.5337 5.09282L17.6389 5.31961C17.6757 5.30253 17.7778 5.31584 17.7778 5.36747L1.97222 4.04194ZM1.97222 4.04194V4.22849M1.97222 4.04194V4.22849M1.97222 4.22849V11.8235V12.1988M1.97222 4.22849V12.1988M1.97222 12.1988L2.31856 12.0542M1.97222 12.1988L2.31856 12.0542M2.31856 12.0542C2.80006 11.8531 3.36094 11.651 3.95911 11.4981M2.31856 12.0542L3.95911 11.4981M3.95911 11.4981C5.69774 11.0536 8.1673 10.9391 9.60391 13.1428L3.95911 11.4981ZM2.10879 14.0935L1.97222 14.163V14.3162V23.8636C1.97222 24.3585 1.58142 24.75 1.11111 24.75C0.640801 24.75 0.25 24.3585 0.25 23.8636V1.13636C0.25 0.641518 0.640804 0.25 1.11111 0.25C1.58142 0.25 1.97222 0.641518 1.97222 1.13636V1.87783V2.19674L2.28191 2.1206C2.80096 1.99299 3.42537 1.87294 4.09561 1.81581C5.85475 1.66589 8.22371 1.9345 9.6039 4.05179L9.60392 4.05182C10.0911 4.79904 11.0871 5.07171 12.5943 4.85693C14.0467 4.64996 15.6399 4.02682 16.8262 3.47658C18.1237 2.8748 19.75 3.79685 19.75 5.36747V12.8873C19.75 13.694 19.2796 14.4483 18.5065 14.7407L18.5064 14.7407C17.5124 15.1167 15.557 15.7778 13.5887 15.9783C11.7017 16.1706 9.37902 15.9792 8.17387 14.1305L8.17387 14.1305C7.39009 12.9283 5.97446 12.8095 4.37421 13.2186C3.47221 13.4492 2.6355 13.8253 2.10879 14.0935Z" fill="white" stroke="#1E2025" stroke-width="0.5"/>
</svg>
