<svg width="27" height="33" viewBox="0 0 27 33" fill="none" xmlns="http://www.w3.org/2000/svg">
<g filter="url(#filter0_d_15_37)">
<path d="M21.5195 11.3327C21.5195 16.8774 18.2286 22.0707 13.7326 23.5901C13.4266 23.6922 13.0928 23.6922 12.7869 23.5901C8.29091 22.0707 5 16.8774 5 11.3327V6.35482C5 5.42502 5.57477 4.37049 6.28857 4.01898L11.452 1.43372C12.6108 0.855428 13.9179 0.855428 15.0766 1.43372L20.2401 4.01898C20.9447 4.37049 21.5288 5.42502 21.5288 6.35482L21.5195 11.3327Z" stroke="white" stroke-width="1.2" stroke-linecap="round" stroke-linejoin="round"/>
<path d="M13.2598 12.8977C14.2838 12.8977 15.1138 11.8824 15.1138 10.6299C15.1138 9.3774 14.2838 8.36207 13.2598 8.36207C12.2358 8.36207 11.4058 9.3774 11.4058 10.6299C11.4058 11.8824 12.2358 12.8977 13.2598 12.8977Z" stroke="white" stroke-width="1.2" stroke-miterlimit="10" stroke-linecap="round" stroke-linejoin="round"/>
<path d="M13.2598 12.8977V16.2994" stroke="white" stroke-width="1.2" stroke-miterlimit="10" stroke-linecap="round" stroke-linejoin="round"/>
</g>
<defs>
<filter id="filter0_d_15_37" x="0.399902" y="0.399994" width="25.729" height="31.8667" filterUnits="userSpaceOnUse" color-interpolation-filters="sRGB">
<feFlood flood-opacity="0" result="BackgroundImageFix"/>
<feColorMatrix in="SourceAlpha" type="matrix" values="0 0 0 0 0 0 0 0 0 0 0 0 0 0 0 0 0 0 127 0" result="hardAlpha"/>
<feOffset dy="4"/>
<feGaussianBlur stdDeviation="2"/>
<feComposite in2="hardAlpha" operator="out"/>
<feColorMatrix type="matrix" values="0 0 0 0 0 0 0 0 0 0 0 0 0 0 0 0 0 0 0.25 0"/>
<feBlend mode="normal" in2="BackgroundImageFix" result="effect1_dropShadow_15_37"/>
<feBlend mode="normal" in="SourceGraphic" in2="effect1_dropShadow_15_37" result="shape"/>
</filter>
</defs>
</svg>
