<svg width="19" height="25" viewBox="0 0 19 25" fill="none" xmlns="http://www.w3.org/2000/svg">
<path d="M17.5195 11.3327C17.5195 16.8774 14.2286 22.0707 9.73256 23.5901C9.42665 23.6922 9.09283 23.6922 8.78691 23.5901C4.29091 22.0707 1 16.8774 1 11.3327V6.35482C1 5.42502 1.57477 4.37049 2.28857 4.01898L7.45201 1.43372C8.61078 0.855428 9.91787 0.855428 11.0766 1.43372L16.2401 4.01898C16.9447 4.37049 17.5288 5.42502 17.5288 6.35482L17.5195 11.3327Z" stroke="white" stroke-width="1.2" stroke-linecap="round" stroke-linejoin="round"/>
<path d="M9.25986 12.8977C10.2838 12.8977 11.1139 11.8824 11.1139 10.6299C11.1139 9.3774 10.2838 8.36207 9.25986 8.36207C8.23587 8.36207 7.40582 9.3774 7.40582 10.6299C7.40582 11.8824 8.23587 12.8977 9.25986 12.8977Z" stroke="white" stroke-width="1.2" stroke-miterlimit="10" stroke-linecap="round" stroke-linejoin="round"/>
<path d="M9.25989 12.8977V16.2994" stroke="white" stroke-width="1.2" stroke-miterlimit="10" stroke-linecap="round" stroke-linejoin="round"/>
</svg>
