<svg width="19" height="20" viewBox="0 0 19 20" fill="none" xmlns="http://www.w3.org/2000/svg">
<path d="M17.0209 8.608C16.6644 8.3941 16.2857 8.21491 15.8893 8.07502L15.8889 4.92104L15.8889 4.77106H15.7389H1.43196H1.28198L1.28196 4.92104L1.28081 14.5171V14.5171C1.28081 15.4955 2.01185 16.3046 2.95067 16.3833L2.95065 16.3834L2.95694 16.3836L3.09385 16.3894L3.09384 16.3895H3.10009H7.82135C7.958 16.8017 8.13337 17.1953 8.34303 17.5658H3.10009C1.53183 17.5658 0.242891 16.2986 0.154792 14.6925L0.15 14.5151V3.19869C0.15 1.56963 1.38432 0.245344 2.93069 0.154934L3.10225 0.15H14.0686L14.2402 0.154934C15.7307 0.242081 16.9312 1.47541 17.0161 3.02328L17.0209 3.20071V8.608ZM15.7399 3.59474H15.8899V3.44474V3.19869C15.8899 2.16906 15.0797 1.32632 14.0706 1.32632H3.10103C2.09187 1.32632 1.28175 2.16906 1.28175 3.19869V3.44474V3.59474H1.43175H15.7399Z" fill="white" stroke="#1E2025" stroke-width="0.3"/>
<path d="M4.29239 7.62369H4.04239V7.87369V13.2868V13.5368H4.29239H6.20013H6.45013V13.2868V7.87369V7.62369H6.20013H4.29239ZM6.91552 6.64737C7.14231 6.64737 7.34047 6.82081 7.37555 7.06056L7.38093 7.14361V14.025C7.38093 14.2753 7.20373 14.4732 6.98568 14.5077L6.90691 14.5132H3.57698C3.35019 14.5132 3.15202 14.3397 3.11699 14.0999L3.11157 14.0169V7.13553C3.11157 6.88518 3.28884 6.68732 3.50691 6.65284L3.58565 6.64737H6.91552Z" fill="white" stroke="#1E2025" stroke-width="0.5"/>
<path d="M13.5928 6.54737C13.9006 6.54737 14.1582 6.80624 14.1582 7.13553C14.1582 7.43517 13.9443 7.67733 13.674 7.71773L13.5876 7.72369H9.30452C8.99666 7.72369 8.73911 7.46481 8.73911 7.13553C8.73911 6.83589 8.95309 6.59372 9.22344 6.55337L9.30972 6.54737H13.5928Z" fill="white" stroke="#1E2025" stroke-width="0.3"/>
<path d="M13.1374 9.70154L13.1374 9.70152L13.2558 9.19477C13.4445 9.17043 13.6367 9.15789 13.8317 9.15789C14.0267 9.15789 14.2188 9.17043 14.4075 9.19477L14.526 9.70154C14.526 9.70155 14.526 9.70155 14.526 9.70155C14.8194 10.957 16.0799 11.7187 17.3007 11.3464L17.6696 11.234C17.9054 11.5759 18.1027 11.9506 18.2541 12.3507L17.9629 12.6397C17.9629 12.6397 17.9629 12.6397 17.9629 12.6397C17.0647 13.5314 17.0647 15.0107 17.9629 15.9024C17.9629 15.9024 17.9629 15.9024 17.9629 15.9024L18.2541 16.1915C18.1027 16.5915 17.9054 16.9662 17.6696 17.3081L17.3007 17.1957C16.0799 16.8234 14.8194 17.5851 14.526 18.8406C14.526 18.8406 14.526 18.8406 14.526 18.8406L14.4075 19.3473C14.2188 19.3717 14.0267 19.3842 13.8317 19.3842C13.6367 19.3842 13.4445 19.3717 13.2558 19.3473L13.1374 18.8406L13.1374 18.8406C12.8439 17.5851 11.5834 16.8234 10.3626 17.1957L9.99378 17.3081C9.75786 16.9662 9.56064 16.5915 9.40927 16.1915L9.70044 15.9024C10.5986 15.0107 10.5986 13.5314 9.70044 12.6397L9.40927 12.3506C9.56064 11.9506 9.75786 11.5759 9.99378 11.234L10.3626 11.3464C10.3626 11.3464 10.3626 11.3464 10.3626 11.3464C11.5834 11.7187 12.8439 10.957 13.1374 9.70154ZM15.5144 14.2711C15.5144 13.3089 14.7792 12.4947 13.8317 12.4947C12.884 12.4947 12.1489 13.3088 12.1489 14.2711C12.1489 15.2333 12.884 16.0474 13.8317 16.0474C14.7792 16.0474 15.5144 15.2332 15.5144 14.2711Z" fill="white" stroke="#1E2025" stroke-width="0.6"/>
</svg>
