<svg width="24" height="26" viewBox="0 0 24 26" fill="none" xmlns="http://www.w3.org/2000/svg">
<path d="M8.01829 22.7857H15.9818C15.4643 24.3649 13.8818 25.5 11.9994 25.5C10.1177 25.5 8.53563 24.365 8.01829 22.7857Z" stroke="white"/>
<path d="M23.5 20.4786V22.4737H0.5V20.4786C0.728322 20.2677 0.961927 20.079 1.20268 19.8848C1.2027 19.8848 1.20271 19.8847 1.20273 19.8847L1.22479 19.8669C1.80885 19.3959 2.43127 18.8939 2.88512 18.0465C3.3442 17.1894 3.6072 16.03 3.6072 14.2632V11.5323C3.6072 7.76076 6.33884 4.43277 10.1379 3.59762L10.7781 3.45689L10.4732 2.87666C10.3479 2.63825 10.2878 2.39524 10.2878 2.1487C10.2878 1.25371 11.0425 0.5 11.9998 0.5C12.9575 0.5 13.7122 1.25381 13.7122 2.1487C13.7122 2.39489 13.6521 2.63805 13.5268 2.87689L13.2223 3.45696L13.8621 3.59762C17.6611 4.43277 20.3929 7.76077 20.3929 11.5323V14.2632C20.3929 16.03 20.6559 17.1894 21.1149 18.0465C21.5688 18.8938 22.1911 19.3958 22.7752 19.8669L22.7973 19.8847C22.7973 19.8847 22.7973 19.8847 22.7974 19.8848C23.0382 20.079 23.2717 20.2677 23.5 20.4786Z" stroke="white"/>
</svg>
