<svg width="426" height="183" viewBox="0 0 426 183" fill="none" xmlns="http://www.w3.org/2000/svg">
<path d="M425.371 182.445V125.903C400.575 125.903 379.321 18.111 354.525 18.111C329.729 18.111 308.475 131.375 283.679 131.375C258.883 131.375 237.629 78.0025 212.833 78.0025C188.037 78.0025 166.783 130.897 141.987 130.897C117.191 130.897 95.9373 65.7135 71.1413 65.7135C46.3452 65.7135 25.0915 36.5305 0.29538 36.5305C0.29538 36.5305 0.29538 36.5305 0.29538 182.445" fill="url(#paint0_linear_5_311)"/>
<path d="M425.371 125.903C400.575 125.903 379.321 18.111 354.525 18.111C329.729 18.111 308.475 131.375 283.679 131.375C258.883 131.375 237.629 78.0025 212.833 78.0025C188.037 78.0025 166.783 130.897 141.987 130.897C117.191 130.897 95.9373 65.7135 71.1413 65.7135C46.3452 65.7135 25.0915 36.5305 0.295393 36.5305" stroke="#C93535" stroke-width="1.37065"/>
<path d="M425.371 182.445V162.382C400.575 162.382 379.321 124.079 354.525 124.079C329.729 124.079 308.475 37.3974 283.679 37.3974C258.883 37.3974 237.629 101.235 212.833 101.235C188.037 101.235 166.783 56.5037 141.987 56.5037C117.191 56.5037 95.9373 87.6007 71.1413 87.6007C46.3452 87.6007 25.0915 107.664 0.29538 107.664C0.29538 107.664 0.29538 107.664 0.29538 182.445" fill="url(#paint1_linear_5_311)"/>
<path d="M425.371 162.382C400.575 162.382 379.321 124.079 354.525 124.079C329.729 124.079 308.475 37.3974 283.679 37.3974C258.883 37.3974 237.629 101.235 212.833 101.235C188.037 101.235 166.783 56.5037 141.987 56.5037C117.191 56.5037 95.9373 87.6007 71.1413 87.6007C46.3452 87.6007 25.0915 107.664 0.295393 107.664" stroke="white" stroke-width="1.37065"/>
<defs>
<linearGradient id="paint0_linear_5_311" x1="425.371" y1="36.5305" x2="425.371" y2="182.445" gradientUnits="userSpaceOnUse">
<stop stop-color="#C93535" stop-opacity="0.3"/>
<stop offset="1" stop-color="#C93535" stop-opacity="0"/>
</linearGradient>
<linearGradient id="paint1_linear_5_311" x1="425.371" y1="60.2417" x2="425.371" y2="182.445" gradientUnits="userSpaceOnUse">
<stop stop-color="white" stop-opacity="0.4225"/>
<stop offset="1" stop-color="white" stop-opacity="0"/>
</linearGradient>
</defs>
</svg>
